<svg width="102" height="104" viewBox="0 0 102 104" fill="none" xmlns="http://www.w3.org/2000/svg">
<g clip-path="url(#clip0)">
<path d="M93.7741 13.4212H71.782C70.4823 10.6317 68.6645 8.0921 66.363 5.98866C61.421 1.47482 55.0346 -0.595076 48.3899 0.148006C40.3962 1.04708 33.5607 6.26375 30.2014 13.4212H8.2274C3.69178 13.4212 0.00175476 17.1835 0.00175476 21.8081V85.5487C0.00175476 90.1733 3.69178 93.9357 8.2274 93.9357H27.9689V100.645H21.3884V104H80.6131V100.645H74.0325V93.9357H93.7741C98.3097 93.9357 102 90.1733 102 85.5487V21.8081C102 17.1835 98.3097 13.4212 93.7741 13.4212ZM88.8387 73.807V26.8402H73.7742C73.9272 25.7365 74.0325 24.6211 74.0325 23.4855H92.129V77.1618H9.87253V23.4855H27.9772C27.9772 24.6194 28.0792 25.7348 28.2354 26.8402H13.1628V73.807H88.8387ZM85.5484 30.195V70.4523H52.6459V60.388H62.5166C65.2377 60.388 67.452 58.1302 67.452 55.3558V53.6784H70.7423V50.3236H67.452V46.9689H70.7423V43.6141H67.452V39.897C70.1171 37.126 72.0271 33.8098 73.08 30.195H85.5484ZM31.4007 21.0432C32.4601 11.8796 39.7563 4.49411 48.7502 3.48433C49.5135 3.39878 50.2736 3.35517 51.0254 3.35517C55.8983 3.35517 60.4981 5.13655 64.1667 8.48797C68.3453 12.304 70.7423 17.7706 70.7423 23.4855C70.7423 28.999 68.5839 34.1503 64.6668 37.9882L64.1618 38.483V43.6141H60.8715V46.9689H64.1618V50.3236H44.4202V53.6784H64.1618V55.3558C64.1618 56.2817 63.4231 57.0332 62.5166 57.0332H39.4848C38.5784 57.0332 37.8397 56.2817 37.8397 55.3558V53.6784H41.13V50.3236H37.8397V46.9689H57.5813V43.6141H37.8397V38.483L37.3347 37.9882C32.8303 33.5749 30.6669 27.3988 31.4007 21.0432ZM34.5495 39.897V43.6141H31.2592V46.9689H34.5495V50.3236H31.2592V53.6784H34.5495V55.3558C34.5495 58.1302 36.7638 60.388 39.4848 60.388H49.3556V70.4523H16.453V30.195H28.956C30.0105 33.7964 31.8843 37.126 34.5495 39.897ZM3.29201 21.8081C3.29201 19.0337 5.50635 16.7759 8.2274 16.7759H28.9198C28.6007 17.8629 28.3736 18.9867 28.2157 20.1307H9.87253C8.05795 20.1307 6.58227 21.6353 6.58227 23.4855V77.1618H3.29201V21.8081ZM70.7423 100.645H31.2592V93.9357H70.7423V100.645ZM98.7095 85.5487C98.7095 88.3231 96.4951 90.5809 93.7741 90.5809H8.2274C5.50635 90.5809 3.29201 88.3231 3.29201 85.5487V80.5166H98.7095V85.5487ZM98.7095 77.1618H95.4192V23.4855C95.4192 21.6353 93.9435 20.1307 92.129 20.1307H73.766C73.6032 18.9918 73.3663 17.8713 73.0455 16.7759H93.7741C96.4951 16.7759 98.7095 19.0337 98.7095 21.8081V77.1618Z" fill="black"/>
<path d="M57.5805 83.8714H44.4195V87.2261H57.5805V83.8714Z" fill="black"/>
<path d="M67.4513 19.807L63.3878 18.2537L65.1843 14.2263L60.0811 9.02308L56.1312 10.8531L54.6078 6.71164H47.3922L45.8688 10.8531L41.9189 9.02308L36.8157 14.2263L38.6122 18.2537L34.5487 19.807V27.164L38.6105 28.7173L36.8157 32.7447L41.9172 37.9479L45.8672 36.1179L47.3922 40.2593H54.6078L56.1312 36.1179L60.0811 37.9479L65.1843 32.7447L63.3895 28.7173L67.4513 27.164V19.807ZM64.161 24.8391L60.5154 26.2331L60.2555 26.9527C60.1617 27.2076 60.0614 27.4609 59.9495 27.7058L59.6353 28.4036L61.2459 32.015L59.3671 33.9306L55.8252 32.2884L55.1408 32.6088C54.9006 32.7229 54.6522 32.8252 54.4021 32.9208L53.6964 33.1858L52.3276 36.9046H49.6724L48.3053 33.1875L47.5995 32.9225C47.3495 32.8269 47.101 32.7245 46.8609 32.6105L46.1765 32.2901L42.6345 33.9322L40.7558 32.0167L42.3664 28.4053L42.0521 27.7075C41.9403 27.4626 41.8399 27.2093 41.7462 26.9543L41.4862 26.2347L37.839 24.8391V22.1318L41.4846 20.7379L41.7445 20.0183C41.8366 19.7634 41.937 19.5134 42.0489 19.2685L42.3664 18.5691L40.7541 14.9543L42.6329 13.0404L46.1748 14.6826L46.8592 14.3622C47.0994 14.2481 47.3478 14.1458 47.5979 14.0502L48.3036 13.7852L49.6724 10.0664H52.3276L53.6947 13.7835L54.4005 14.0485C54.6505 14.1441 54.8989 14.2465 55.1391 14.3605L55.8235 14.6809L59.3655 13.0387L61.2442 14.9526L59.632 18.5674L59.9495 19.2669C60.0614 19.5118 60.1617 19.7617 60.2538 20.0167L60.5138 20.7363L64.161 22.1318V24.8391Z" fill="black"/>
<path d="M51 16.776C47.3708 16.776 44.4195 19.7852 44.4195 23.4855C44.4195 27.1858 47.3708 30.195 51 30.195C54.6292 30.195 57.5805 27.1858 57.5805 23.4855C57.5805 19.7852 54.6292 16.776 51 16.776ZM51 26.8403C49.1854 26.8403 47.7097 25.3357 47.7097 23.4855C47.7097 21.6353 49.1854 20.1307 51 20.1307C52.8146 20.1307 54.2903 21.6353 54.2903 23.4855C54.2903 25.3357 52.8146 26.8403 51 26.8403Z" fill="black"/>
<path d="M69.0964 63.7427H65.8062V67.0975H69.0964V63.7427Z" fill="black"/>
<path d="M75.6769 63.7427H72.3867V67.0975H75.6769V63.7427Z" fill="black"/>
<path d="M82.2574 63.7427H78.9672V67.0975H82.2574V63.7427Z" fill="black"/>
<path d="M23.0328 63.7427H19.7426V67.0975H23.0328V63.7427Z" fill="black"/>
<path d="M29.6133 63.7427H26.3231V67.0975H29.6133V63.7427Z" fill="black"/>
<path d="M36.1938 63.7427H32.9036V67.0975H36.1938V63.7427Z" fill="black"/>
</g>
<defs>
<clipPath id="clip0">
<rect width="102" height="104" fill="white"/>
</clipPath>
</defs>
</svg>
