<svg width="137" height="120" viewBox="0 0 137 120" fill="none" xmlns="http://www.w3.org/2000/svg">
<path d="M110.434 79.2602V66.768L104.415 68.8191L104.398 68.7844L104.254 68.5562C101.948 65.411 98.2178 63.2226 94.0178 62.5557L79.5352 60.2474V59.2461C84.9513 56.4913 88.9173 51.7917 90.1533 46.2358C94.1657 45.5089 97.1916 42.3907 97.1916 38.6635V19.5695C97.1916 14.1741 93.1571 9.4687 87.304 7.93762L86.2005 6.97103C81.0669 2.47447 74.2427 0 66.9837 0C52.0001 0 39.8084 10.6769 39.8084 23.8032V38.6635C39.8084 42.3907 42.8343 45.5089 46.8467 46.2358C48.0848 51.7917 52.0487 56.4932 57.4648 59.2461V60.2474L42.9844 62.5537C38.7888 63.2207 35.0611 65.4052 32.7525 68.5485L32.6201 68.8307L26.5662 66.768V79.2602C22.9157 79.2602 19.945 81.8623 19.945 85.0598V92.7925C19.945 95.9899 22.9157 98.592 26.5662 98.592V105.714L68.5 120L110.434 105.714V98.592C114.084 98.592 117.055 95.9899 117.055 92.7925V85.0598C117.055 81.8623 114.084 79.2602 110.434 79.2602ZM83.6712 64.8368L93.2277 66.3582C96.0417 66.8067 98.5334 68.2295 100.195 70.2555L78.8422 77.5281L83.6712 64.8368ZM62.0665 61.0188C64.1036 61.5639 66.262 61.8616 68.5 61.8616C70.7379 61.8616 72.8964 61.5639 74.9335 61.0188L68.5 65.2447L62.0665 61.0188ZM65.1409 67.87L60.6363 71.8136L57.7142 64.137L59.1201 63.9147L65.1409 67.87ZM77.8799 63.9166L79.2858 64.1389L76.3637 71.8156L71.8591 67.8719L77.8799 63.9166ZM90.5704 41.9925V35.3346C91.8836 36.0054 92.7775 37.2388 92.7775 38.6635C92.7775 40.0883 91.8836 41.3216 90.5704 41.9925ZM46.4296 41.9925C45.1164 41.3216 44.2225 40.0883 44.2225 38.6635C44.2225 37.2388 45.1164 36.0054 46.4296 35.3346V41.9925ZM46.4296 28.9976V31.2053C45.6439 31.3851 44.9067 31.6558 44.2225 32.0057V23.8032C44.2225 12.8112 54.4323 3.86635 66.9837 3.86635C73.0619 3.86635 78.7804 5.94065 83.0797 9.70648L85.0263 11.4135L85.62 11.5411C89.8355 12.4632 92.7775 15.7651 92.7775 19.5695V32.0057C92.0933 31.6558 91.3561 31.3832 90.5704 31.2053V28.9976H83.5719C77.5908 28.9976 71.8746 26.4961 68.2881 22.3069L66.5335 20.2539L62.1481 24.097C58.5374 27.2578 53.7393 28.9976 48.6366 28.9976H46.4296ZM50.8436 42.5299V32.7751C56.2928 32.3324 61.3492 30.2619 65.2689 26.8306L66.1274 26.0786C70.5525 30.3567 76.9265 32.864 83.5719 32.864H86.1563V42.5299C86.1563 51.0571 78.2353 57.9953 68.5 57.9953C58.7647 57.9953 50.8436 51.0571 50.8436 42.5299ZM43.7723 66.3582L53.3288 64.8368L58.1578 77.5281L36.8002 70.2536C38.4621 68.2257 40.9583 66.8067 43.7723 66.3582ZM24.3591 92.7925V85.0598C24.3591 83.9927 25.3501 83.1266 26.5662 83.1266C30.2166 83.1266 33.1873 85.7286 33.1873 88.9261C33.1873 92.1236 30.2166 94.7256 26.5662 94.7256C25.3501 94.7256 24.3591 93.8596 24.3591 92.7925ZM66.2929 115.097L30.9803 103.071V97.7723C34.8713 96.2761 37.6014 92.8795 37.6014 88.9261C37.6014 84.9728 34.8713 81.5762 30.9803 80.0799V72.4207L66.2929 84.4489V115.097ZM59.7402 78.0694L68.5 70.3947L77.2597 78.0675L68.5 81.0523L59.7402 78.0694ZM106.02 103.069L70.707 115.096V84.4489L106.02 72.4207V80.0799C102.129 81.5762 99.3986 84.9728 99.3986 88.9261C99.3986 92.8795 102.129 96.2761 106.02 97.7723V103.069ZM112.641 92.7925C112.641 93.8596 111.65 94.7256 110.434 94.7256C106.783 94.7256 103.813 92.1236 103.813 88.9261C103.813 85.7286 106.783 83.1266 110.434 83.1266C111.65 83.1266 112.641 83.9927 112.641 85.0598V92.7925Z" fill="black"/>
</svg>
