<svg width="124" height="111" viewBox="0 0 124 111" fill="none" xmlns="http://www.w3.org/2000/svg">
<path d="M23.1456 110.68H124L117.444 91.9025C117.349 91.6302 117.235 91.3667 117.128 91.0997H123.284V12.7803H99.4227V12.8586C98.6253 12.3549 97.7981 11.8796 96.9212 11.4595C92.8071 4.57456 84.905 0.320389 76.1419 0.320389H73.5728C63.0101 0.320389 53.5292 4.46242 46.9713 11.0003H0V91.0997H30.0177C29.9103 91.3667 29.797 91.6302 29.7015 91.9025L23.1456 110.68ZM78.9814 107.12H68.1642L69.749 101.447L65.7283 96.0481L73.5728 89.9054L81.4173 96.0499L77.3966 101.449L78.9814 107.12ZM79.5382 39.4801C77.3449 39.4801 75.5613 41.0768 75.5613 43.0401H71.5844C71.5844 41.0768 69.8007 39.4801 67.6074 39.4801H55.6767C54.2112 39.4801 52.9426 40.201 52.2526 41.2601H49.7114V33.0045C57.0269 34.9394 64.587 35.9201 72.2286 35.9201H74.917C82.5586 35.9201 90.1207 34.9394 97.4342 33.0045V41.2601H94.893C94.203 40.201 92.9344 39.4801 91.4689 39.4801H79.5382ZM91.4689 43.0401V46.6001C91.4689 48.5634 89.6852 50.16 87.492 50.16H83.5151C81.3218 50.16 79.5382 48.5634 79.5382 46.6001V43.0401H91.4689ZM67.6074 43.0401V46.6001C67.6074 48.5634 65.8238 50.16 63.6305 50.16H59.6536C57.4604 50.16 55.6767 48.5634 55.6767 46.6001V43.0401H67.6074ZM51.6998 44.8201V46.6001C51.6998 50.5267 55.2671 53.72 59.6536 53.72H63.6305C68.0171 53.72 71.5844 50.5267 71.5844 46.6001H75.5613C75.5613 50.5267 79.1285 53.72 83.5151 53.72H87.492C91.8785 53.72 95.4458 50.5267 95.4458 46.6001V44.8201H97.4342V51.94C97.4342 63.7182 86.7304 73.2999 73.5728 73.2999C60.4152 73.2999 49.7114 63.7182 49.7114 51.94V44.8201H51.6998ZM86.1975 78.7555L91.2899 79.4568L88.1064 96.5572L76.4819 87.4525L86.1975 78.7555ZM73.5728 85.0229L63.6305 76.1229V75.1884C66.7226 76.2529 70.0672 76.8598 73.5728 76.8598C77.0784 76.8598 80.423 76.2529 83.5151 75.1884V76.1229L73.5728 85.0229ZM70.6637 87.4525L59.0392 96.5572L55.8557 79.4568L60.9481 78.7555L70.6637 87.4525ZM118.591 107.12H103.167L101.395 94.439L97.4502 94.8804L99.1582 107.12H83.0776L81.6797 102.113L84.4357 98.4137L90.8564 103.442L95.2211 79.9997L97.1559 80.2667C104.853 81.3276 111.328 86.3116 113.652 92.9652L118.591 107.12ZM119.307 16.3403V87.5398H115.33V87.5825C111.66 81.858 105.187 77.7712 97.7604 76.7477L87.492 75.3326V73.4885C94.1831 70.0122 99.1205 64.1276 100.787 57.1572C105.619 56.5537 109.365 52.8692 109.365 48.38V30.0604C109.365 24.8949 107.273 20.0889 103.67 16.3403H119.307ZM101.328 53.4156C101.359 52.9244 101.411 52.4384 101.411 51.94V43.3676C103.72 44.1045 105.388 46.0625 105.388 48.38C105.388 50.7243 103.68 52.7001 101.328 53.4156ZM73.5728 3.88036H76.1419C83.6105 3.88036 90.3255 7.5952 93.6661 13.576L93.9624 14.1064L94.555 14.3716C101.238 17.3638 105.388 23.3748 105.388 30.0604V41.3064C104.227 40.5196 102.889 39.9304 101.411 39.6617V28.1113L98.7943 28.8927C91.0791 31.1943 83.0458 32.3602 74.917 32.3602H72.2286C64.0998 32.3602 56.0665 31.1943 48.3512 28.8927L45.7344 28.1095V39.6599C44.257 39.9304 42.9188 40.5178 41.7575 41.3046V32.3602C41.7575 16.6571 56.0307 3.88036 73.5728 3.88036ZM45.818 53.4156C43.4656 52.7001 41.7575 50.7243 41.7575 48.38C41.7575 46.0625 43.4258 44.1045 45.7344 43.3676V51.94C45.7344 52.4384 45.7861 52.9244 45.818 53.4156ZM3.97691 87.5398V14.5603H43.8335C40.0157 19.6546 37.7806 25.7778 37.7806 32.3602V48.38C37.7806 52.8692 41.5269 56.5537 46.3588 57.1572C48.0251 64.1276 52.9625 70.0122 59.6536 73.4885V75.3326L49.3852 76.7459C41.9584 77.7694 35.486 81.8563 31.8153 87.5807V87.5398H3.97691ZM33.4955 92.9634C35.82 86.3116 42.2944 81.3258 49.9917 80.265L51.9265 79.998L56.2911 103.44L62.7119 98.4119L65.4679 102.111L64.068 107.12H47.9874L49.6954 94.8804L45.7504 94.439L43.9786 107.12H28.5542L33.4955 92.9634Z" fill="black"/>
<path d="M15.9076 28.8002V32.3602H17.8961V43.0401H21.873V28.8002H15.9076Z" fill="black"/>
<path d="M31.8153 48.3801H7.95383V51.94H31.8153V48.3801Z" fill="black"/>
<path d="M25.8499 61.1461V60.84C25.8499 57.8959 23.1735 55.5 19.8846 55.5C16.5956 55.5 13.9192 57.8959 13.9192 60.84H17.8961C17.8961 59.8574 18.7869 59.06 19.8846 59.06C20.9822 59.06 21.873 59.8574 21.873 60.84V61.1461C21.873 61.6143 21.6622 62.0735 21.2904 62.4046L13.9192 69.003V73.2999H25.8499V69.7399H18.7193L24.1021 64.9215C25.2295 63.914 25.8499 62.5719 25.8499 61.1461Z" fill="black"/>
</svg>
